<mxfile host="app.diagrams.net" agent="Mozilla/5.0 (X11; Ubuntu; Linux x86_64; rv:134.0) Gecko/20100101 Firefox/134.0" version="26.0.7">
  <diagram name="Page-1" id="Z6k4jW-QBUbc_f2WaPmU">
    <mxGraphModel dx="346" dy="385" grid="1" gridSize="10" guides="1" tooltips="1" connect="1" arrows="1" fold="1" page="1" pageScale="1" pageWidth="850" pageHeight="1100" math="0" shadow="0">
      <root>
        <mxCell id="0" />
        <mxCell id="1" parent="0" />
        <mxCell id="xWaIrbfhw9UBgd3ar35P-1" value="" style="rounded=0;whiteSpace=wrap;html=1;" vertex="1" parent="1">
          <mxGeometry x="30" y="110" width="200" height="200" as="geometry" />
        </mxCell>
        <mxCell id="xWaIrbfhw9UBgd3ar35P-3" value="" style="endArrow=none;html=1;rounded=0;exitX=0.25;exitY=1;exitDx=0;exitDy=0;entryX=0.25;entryY=0;entryDx=0;entryDy=0;" edge="1" parent="1">
          <mxGeometry width="50" height="50" relative="1" as="geometry">
            <mxPoint x="80" y="310" as="sourcePoint" />
            <mxPoint x="80" y="110" as="targetPoint" />
          </mxGeometry>
        </mxCell>
        <mxCell id="xWaIrbfhw9UBgd3ar35P-5" value="" style="endArrow=none;html=1;rounded=0;exitX=0.797;exitY=1.002;exitDx=0;exitDy=0;entryX=0.25;entryY=0;entryDx=0;entryDy=0;exitPerimeter=0;" edge="1" parent="1">
          <mxGeometry width="50" height="50" relative="1" as="geometry">
            <mxPoint x="179.99999999999997" y="310" as="sourcePoint" />
            <mxPoint x="180.6" y="109.6" as="targetPoint" />
          </mxGeometry>
        </mxCell>
        <mxCell id="xWaIrbfhw9UBgd3ar35P-6" value="" style="endArrow=none;html=1;rounded=0;exitX=0.797;exitY=1.002;exitDx=0;exitDy=0;entryX=0.25;entryY=0;entryDx=0;entryDy=0;exitPerimeter=0;" edge="1" parent="1">
          <mxGeometry width="50" height="50" relative="1" as="geometry">
            <mxPoint x="129.5" y="310" as="sourcePoint" />
            <mxPoint x="130.5" y="110" as="targetPoint" />
          </mxGeometry>
        </mxCell>
        <mxCell id="xWaIrbfhw9UBgd3ar35P-8" value="" style="endArrow=none;html=1;rounded=0;exitX=0;exitY=0.25;exitDx=0;exitDy=0;entryX=1;entryY=0.25;entryDx=0;entryDy=0;" edge="1" parent="1" source="xWaIrbfhw9UBgd3ar35P-1" target="xWaIrbfhw9UBgd3ar35P-1">
          <mxGeometry width="50" height="50" relative="1" as="geometry">
            <mxPoint x="189.99999999999997" y="320" as="sourcePoint" />
            <mxPoint x="190.6" y="119.6" as="targetPoint" />
          </mxGeometry>
        </mxCell>
        <mxCell id="xWaIrbfhw9UBgd3ar35P-10" value="" style="endArrow=none;html=1;rounded=0;exitX=0;exitY=0.25;exitDx=0;exitDy=0;entryX=1;entryY=0.25;entryDx=0;entryDy=0;" edge="1" parent="1">
          <mxGeometry width="50" height="50" relative="1" as="geometry">
            <mxPoint x="30" y="209.82999999999998" as="sourcePoint" />
            <mxPoint x="230" y="209.82999999999998" as="targetPoint" />
          </mxGeometry>
        </mxCell>
        <mxCell id="xWaIrbfhw9UBgd3ar35P-11" value="" style="endArrow=none;html=1;rounded=0;exitX=0;exitY=0.25;exitDx=0;exitDy=0;entryX=1;entryY=0.25;entryDx=0;entryDy=0;" edge="1" parent="1">
          <mxGeometry width="50" height="50" relative="1" as="geometry">
            <mxPoint x="30" y="260" as="sourcePoint" />
            <mxPoint x="230" y="260" as="targetPoint" />
          </mxGeometry>
        </mxCell>
      </root>
    </mxGraphModel>
  </diagram>
</mxfile>
